<svg version="1" xmlns="http://www.w3.org/2000/svg" width="682.667" height="682.667" viewBox="0 0 512.000000 512.000000"><path d="M238.5 38.7c-8.8 5.3-35.6 20.8-59.5 34.6-23.9 13.7-50.5 29-59 34-20.8 12.1-38.3 22.2-50.8 29.1L59 142.1v227.7l15.8 8.8c8.6 4.8 22.9 13 31.7 18.2 15.6 9.2 57.9 33.7 105.5 61 12.9 7.4 24 13.8 24.5 14.2.6.4 4.9 3 9.6 5.8l8.6 5 11.9-7c18-10.6 64.9-37.8 98.7-57.2 16.6-9.5 36.7-21.1 44.7-25.8 8-4.7 20.5-11.8 27.8-15.8l13.4-7.3-11.6-6.7c-6.3-3.8-13.7-8.1-16.4-9.6l-5-2.8-18.8 11.1c-10.4 6.1-24.9 14.5-32.3 18.7l-13.4 7.6-16.5-9.5-16.4-9.5-30.7 17.8c-16.8 9.9-31.5 18.4-32.7 19-1.9 1-6.3-1.3-35.5-18.3-18.4-10.7-47.7-27.6-65.1-37.7L125 331.6V180.4l25.3-14.4c13.8-7.9 42.9-24.7 64.6-37.3 21.7-12.7 39.9-23 40.5-23 .6 0 14.8 8 31.6 17.8 80.9 47.1 98 56.7 99.7 56.1 1.9-.8 62.3-35.5 63.6-36.6.5-.4-6.3-4.7-15-9.5-8.7-4.9-25.9-14.8-38.3-22.1-21.5-12.6-59.7-34.7-91-52.5-8-4.5-21.5-12.4-30.1-17.5-8.6-5-16.9-9.9-18.5-10.7-2.9-1.5-3.2-1.3-18.9 8z"/><path d="M254.4 180.9c-1.2 1.2-24.1 14.4-46.1 26.6l-18.2 10.1 32.2 18.6c17.7 10.3 32.3 19 32.5 19.6.1.5-14.4 9.3-32.3 19.7-17.9 10.3-32.5 18.9-32.3 19 .2.2 8 4.5 17.3 9.7 9.4 5.3 23.7 13.4 32 18.2 8.2 4.7 15.3 8.6 15.7 8.6.4 0 .9-16.7 1-37l.3-37.1 31 18.2c17.1 10 31.6 18.4 32.3 18.6.9.4 1.2-7.6 1.2-37.8v-38.4l-14.7-8c-12.4-6.8-36.5-20.6-47.9-27.6-1.7-1-3.5-1.5-4-1z"/></svg>